<svg xmlns="http://www.w3.org/2000/svg" width="21" height="20" viewBox="0 0 21 20" fill="none">
                            <path d="M13.8359 10.3923V7.47559C13.8359 6.78559 13.2768 6.22559 12.5859 6.22559V6.22559C11.8959 6.22559 11.3359 6.78559 11.3359 7.47559" stroke="#505050" stroke-linecap="round" stroke-linejoin="round"></path>
                            <path d="M13.8359 8.30884C13.8359 7.61884 14.3959 7.05884 15.0859 7.05884V7.05884C15.7768 7.05884 16.3359 7.61884 16.3359 8.30884V11.2255" stroke="#505050" stroke-linecap="round" stroke-linejoin="round"></path>
                            <path d="M11.3343 10.3922V3.30884C11.3343 2.61884 10.7751 2.05884 10.0843 2.05884V2.05884C9.39431 2.05884 8.83431 2.61884 8.83431 3.30884V9.55884V12.0588L7.26431 10.4888C6.75015 9.97467 5.91765 9.97467 5.40348 10.4888V10.4888C4.97515 10.9172 4.90848 11.588 5.24515 12.0922L8.18348 16.4988C9.11098 17.8897 10.6718 18.7255 12.3443 18.7255H13.8343C16.596 18.7255 18.8343 16.4872 18.8343 13.7255V10.3922V9.14217C18.8343 8.45217 18.2751 7.89217 17.5843 7.89217V7.89217C16.8943 7.89217 16.3343 8.45217 16.3343 9.14217" stroke="#505050" stroke-linecap="round" stroke-linejoin="round"></path>
                            <path d="M18.9067 1.27441L20.5017 2.86941L18.8125 4.55858" stroke="#505050" stroke-linecap="round" stroke-linejoin="round"></path>
                            <path d="M2.09333 1.27441L0.498333 2.86941L2.1875 4.55858" stroke="#505050" stroke-linecap="round" stroke-linejoin="round"></path>
                            <path d="M20.5 2.86686H15.5" stroke="#505050" stroke-linecap="round" stroke-linejoin="round"></path>
                            <path d="M0.5 2.86686H5.5" stroke="#505050" stroke-linecap="round" stroke-linejoin="round"></path>
                        </svg>